<?xml version="1.0" encoding="UTF-8" standalone="no"?>
<!-- Created with Inkscape (http://www.inkscape.org/) -->

<svg
   xmlns:dc="http://purl.org/dc/elements/1.1/"
   xmlns:cc="http://creativecommons.org/ns#"
   xmlns:rdf="http://www.w3.org/1999/02/22-rdf-syntax-ns#"
   xmlns:svg="http://www.w3.org/2000/svg"
   xmlns="http://www.w3.org/2000/svg"
   xmlns:xlink="http://www.w3.org/1999/xlink"
   xmlns:sodipodi="http://sodipodi.sourceforge.net/DTD/sodipodi-0.dtd"
   xmlns:inkscape="http://www.inkscape.org/namespaces/inkscape"
   width="282.55072"
   height="90"
   id="svg2"
   version="1.1"
   inkscape:version="0.91 r13725"
   sodipodi:docname="sockethub-logo.svg"
   inkscape:export-filename="sockethub.png"
   inkscape:export-xdpi="99.540001"
   inkscape:export-ydpi="99.540001">
  <defs
     id="defs4">
    <linearGradient
       id="linearGradient4084">
      <stop
         style="stop-color:#ff9c1f;stop-opacity:1;"
         offset="0"
         id="stop4086" />
      <stop
         id="stop4094"
         offset="0.23809524"
         style="stop-color:#f23c00;stop-opacity:1;" />
      <stop
         style="stop-color:#de0f3c;stop-opacity:0.82467532;"
         offset="1"
         id="stop4088" />
    </linearGradient>
    <radialGradient
       inkscape:collect="always"
       xlink:href="#linearGradient4084"
       id="radialGradient4092"
       cx="204"
       cy="528"
       fx="204"
       fy="528"
       r="40"
       gradientTransform="matrix(0.62499988,0,0,1.1249998,93.138489,398.96232)"
       gradientUnits="userSpaceOnUse" />
  </defs>
  <sodipodi:namedview
     id="base"
     pagecolor="#ffffff"
     bordercolor="#666666"
     borderopacity="1.0"
     inkscape:pageopacity="0.0"
     inkscape:pageshadow="2"
     inkscape:zoom="0.70000001"
     inkscape:cx="70.722998"
     inkscape:cy="220.01293"
     inkscape:document-units="px"
     inkscape:current-layer="layer1"
     showgrid="true"
     inkscape:window-width="1436"
     inkscape:window-height="855"
     inkscape:window-x="0"
     inkscape:window-y="0"
     inkscape:window-maximized="1"
     fit-margin-top="0"
     fit-margin-left="0"
     fit-margin-right="0"
     fit-margin-bottom="0">
    <inkscape:grid
       type="xygrid"
       id="grid2994"
       empspacing="4"
       visible="true"
       enabled="true"
       snapvisiblegridlinesonly="true"
       dotted="true"
       originx="-173.02241"
       originy="-14.39998" />
  </sodipodi:namedview>
  <metadata
     id="metadata7">
    <rdf:RDF>
      <cc:Work
         rdf:about="">
        <dc:format>image/svg+xml</dc:format>
        <dc:type
           rdf:resource="http://purl.org/dc/dcmitype/StillImage" />
        <dc:title></dc:title>
      </cc:Work>
    </rdf:RDF>
  </metadata>
  <g
     inkscape:label="Layer 1"
     inkscape:groupmode="layer"
     id="layer1"
     transform="translate(-173.02241,-947.9622)">
    <path
       inkscape:connector-curvature="0"
       id="path4044"
       style="font-style:normal;font-variant:normal;font-weight:bold;font-stretch:normal;font-size:100px;line-height:125%;font-family:'Source Sans Pro';-inkscape-font-specification:'Source Sans Pro Bold';letter-spacing:0px;word-spacing:0px;fill:#000000;fill-opacity:1;stroke:none"
       d="m 177.1474,1000.0782 c 1.41667,1.0833 2.77083,1.8959 4.06251,2.4374 1.29166,0.5418 2.60416,0.8127 3.93749,0.8127 1.375,0 2.37499,-0.2292 3,-0.6876 0.62499,-0.4583 0.93749,-1.1041 0.93751,-1.9375 -2e-5,-0.4999 -0.18752,-0.93745 -0.56251,-1.31252 -0.33334,-0.41659 -0.81251,-0.79156 -1.4375,-1.125 -0.58334,-0.33323 -1.25001,-0.62494 -2,-0.87492 -0.75001,-0.29171 -1.52082,-0.60412 -2.3125,-0.93757 -0.95833,-0.37497 -1.91667,-0.81248 -2.875,-1.31239 -0.95833,-0.50004 -1.83334,-1.10424 -2.62499,-1.81248 -0.79167,-0.75 -1.4375,-1.60419 -1.93751,-2.56255 -0.49999,-0.99999 -0.74999,-2.14581 -0.74998,-3.43751 -1e-5,-1.41664 0.27082,-2.72915 0.81249,-3.9375 0.58332,-1.20832 1.39583,-2.22913 2.4375,-3.0625 1.04166,-0.8333 2.29167,-1.47912 3.75,-1.93749 1.45831,-0.49997 3.08332,-0.74997 4.87501,-0.75001 2.37497,4e-5 4.4583,0.4167 6.25,1.25001 1.79164,0.79168 3.35412,1.68751 4.68749,2.6875 l -4.12499,5.49999 c -1.12503,-0.8333 -2.2292,-1.47914 -3.31252,-1.9375 -1.08333,-0.45831 -2.16667,-0.68747 -3.24999,-0.6875 -2.33335,2e-5 -3.50002,0.81252 -3.5,2.43751 -2e-5,0.50001 0.16666,0.9375 0.50001,1.31249 0.3333,0.33336 0.77081,0.64586 1.31249,0.93751 0.58332,0.29169 1.22916,0.58334 1.9375,0.875 0.74998,0.25001 1.52082,0.52085 2.31251,0.8125 0.99996,0.375 1.97914,0.8125 2.93749,1.31249 0.99997,0.45832 1.89582,1.04164 2.68752,1.75 0.83328,0.70836 1.49995,1.58323 1.99998,2.62498 0.49998,1.00001 0.74997,2.20837 0.75,3.62506 -3e-5,1.4166 -0.27085,2.729 -0.8125,3.9374 -0.54168,1.2084 -1.35419,2.2708 -2.43751,3.1876 -1.08335,0.875 -2.41668,1.5833 -3.99998,2.125 -1.58335,0.4999 -3.4167,0.75 -5.50003,0.75 -2.04166,0 -4.14581,-0.3959 -6.31247,-1.1875 -2.12502,-0.7918 -3.97917,-1.8333 -5.56251,-3.125 l 4.12499,-5.7501" />
    <path
       inkscape:connector-curvature="0"
       id="path4048"
       style="font-style:normal;font-variant:normal;font-weight:bold;font-stretch:normal;font-size:100px;line-height:125%;font-family:'Source Sans Pro';-inkscape-font-specification:'Source Sans Pro Bold';letter-spacing:0px;word-spacing:0px;fill:#000000;fill-opacity:1;stroke:none"
       d="m 236.33783,993.89076 c 0,-2.58332 0.4375,-4.87499 1.31249,-6.87499 0.875,-2.04164 2.04167,-3.74998 3.5,-5.125 1.49999,-1.37498 3.22916,-2.41665 5.18751,-3.125 1.95831,-0.74997 3.99998,-1.12497 6.12499,-1.12501 1.91665,4e-5 3.64582,0.33337 5.1875,1 1.54164,0.62504 2.83332,1.47919 3.87501,2.56251 l -4.18751,5.6875 c -1.45835,-1.20831 -2.89585,-1.81249 -4.3125,-1.81251 -2.25001,2e-5 -4.02084,0.7917 -5.31248,2.37501 -1.2917,1.58334 -1.93751,3.72917 -1.93751,6.43749 0,2.70845 0.64581,4.85416 1.93751,6.43754 1.3333,1.5833 2.99995,2.375 4.99999,2.375 1.12497,0 2.14581,-0.2292 3.06249,-0.6874 0.91665,-0.4585 1.74999,-0.9792 2.49999,-1.5627 l 3.68751,5.8126 c -1.50002,1.3333 -3.16668,2.3126 -4.99999,2.9376 -1.83338,0.625 -3.60419,0.9374 -5.31249,0.9374 -2.1667,0 -4.18752,-0.3541 -6.06252,-1.0626 -1.83333,-0.7499 -3.4375,-1.8124 -4.8125,-3.1874 -1.375,-1.3751 -2.45832,-3.0626 -3.25001,-5.0625 -0.79166,-2.04164 -1.18748,-4.35419 -1.18748,-6.93754" />
    <path
       inkscape:connector-curvature="0"
       id="path4050"
       style="font-style:normal;font-variant:normal;font-weight:bold;font-stretch:normal;font-size:100px;line-height:125%;font-family:'Source Sans Pro';-inkscape-font-specification:'Source Sans Pro Bold';letter-spacing:0px;word-spacing:0px;fill:#000000;fill-opacity:1;stroke:none"
       d="m 267.32512,965.57827 8.9375,0 0,25.125 0.25001,0 9.8125,-12.3125 9.99998,0 -10.87499,12.75 11.6875,18.25003 -9.9375,0 -7,-12.06247 -3.9375,4.43747 0,7.625 -8.93749,0 0,-43.81253" />
    <path
       inkscape:connector-curvature="0"
       id="path4052"
       style="font-style:normal;font-variant:normal;font-weight:bold;font-stretch:normal;font-size:100px;line-height:125%;font-family:'Source Sans Pro';-inkscape-font-specification:'Source Sans Pro Bold';letter-spacing:0px;word-spacing:0px;fill:#000000;fill-opacity:1;stroke:none"
       d="m 298.10541,993.89076 c 0,-2.49999 0.41663,-4.74999 1.24998,-6.75 0.83334,-2.04165 1.91666,-3.74998 3.25,-5.125 1.37498,-1.41663 2.9375,-2.49995 4.6875,-3.24999 1.74998,-0.74997 3.56249,-1.12497 5.4375,-1.12501 2.20832,4e-5 4.12498,0.37504 5.75,1.12501 1.66665,0.75004 3.04164,1.7917 4.125,3.125 1.12497,1.33335 1.95831,2.91668 2.5,4.74999 0.54164,1.7917 0.81246,3.75002 0.8125,5.87504 -4e-5,0.83328 -0.0417,1.60416 -0.125,2.3124 -0.0833,0.66671 -0.16669,1.18748 -0.25,1.56255 l -18.5625,0 c 0.41665,2.37499 1.33332,4.10415 2.75001,5.18765 1.45831,1.0415 3.22915,1.5625 5.31249,1.5625 2.20831,0 4.43748,-0.6876 6.68749,-2.0627 l 3.06251,5.5625 c -1.58336,1.0834 -3.3542,1.9377 -5.31251,2.5627 -1.91668,0.625 -3.8125,0.9374 -5.6875,0.9374 -2.20834,0 -4.27085,-0.3541 -6.1875,-1.0626 -1.91666,-0.7498 -3.58334,-1.8124 -4.99999,-3.1874 -1.41667,-1.4168 -2.52082,-3.125 -3.3125,-5.125 -0.79166,-2.00006 -1.18748,-4.29169 -1.18748,-6.87504 m 19.99998,-3.18749 c -2e-5,-1.79164 -0.39585,-3.24999 -1.18752,-4.375 -0.79167,-1.12498 -2.12501,-1.68748 -3.99998,-1.6875 -1.45835,2e-5 -2.75002,0.50003 -3.875,1.49999 -1.08333,0.95835 -1.79167,2.4792 -2.12499,4.56251 l 11.18749,0" />
    <path
       inkscape:connector-curvature="0"
       id="path4054"
       style="font-style:normal;font-variant:normal;font-weight:bold;font-stretch:normal;font-size:100px;line-height:125%;font-family:'Source Sans Pro';-inkscape-font-specification:'Source Sans Pro Bold';letter-spacing:0px;word-spacing:0px;fill:#000000;fill-opacity:1;stroke:none"
       d="m 332.41789,985.57826 -4.25,0 0,-6.81249 4.74999,-0.375 1.0625,-8.25 7.625,0 0,8.25 7.43749,0 0,7.18749 -7.43749,0 0,12.43755 c -1e-5,1.74994 0.35415,3.02089 1.06251,3.81249 0.74997,0.75 1.72913,1.125 2.93748,1.1249 0.49999,10e-5 0.99999,-0.063 1.50001,-0.1874 0.54166,-0.125 1.02082,-0.2709 1.4375,-0.4376 l 1.43751,6.6877 c -0.83336,0.2497 -1.81252,0.4999 -2.93751,0.7499 -1.12503,0.2499 -2.43752,0.375 -3.9375,0.375 -1.91668,0 -3.56251,-0.2918 -4.93749,-0.8752 -1.33336,-0.5832 -2.43751,-1.3956 -3.31251,-2.4373 -0.83335,-1.0417 -1.45834,-2.2917 -1.87499,-3.75 -0.37501,-1.5 -0.56251,-3.14594 -0.5625,-4.9375 l 0,-12.56254" />
    <path
       inkscape:connector-curvature="0"
       id="path4056"
       style="font-style:normal;font-variant:normal;font-weight:bold;font-stretch:normal;font-size:100px;line-height:125%;font-family:'Source Sans Pro';-inkscape-font-specification:'Source Sans Pro Bold';letter-spacing:0px;word-spacing:0px;fill:#000000;fill-opacity:1;stroke:none"
       d="m 355.09366,965.57827 9.1875,0 0,10.75 -0.4375,5.5625 c 1.16665,-1.04165 2.52082,-1.99997 4.06251,-2.875 1.54163,-0.91664 3.37498,-1.37497 5.49998,-1.37501 3.37498,4e-5 5.81248,1.1042 7.3125,3.3125 1.54165,2.20836 2.31248,5.27085 2.3125,9.18751 l 0,19.25003 -9.18749,0 0,-18.06253 c -3e-5,-2.25 -0.31253,-3.79166 -0.93751,-4.62501 -0.58335,-0.8333 -1.54168,-1.24997 -2.87499,-1.25 -1.16669,3e-5 -2.16668,0.27086 -3,0.8125 -0.83336,0.50002 -1.75,1.2292 -2.75,2.1875 l 0,20.93754 -9.1875,0 0,-43.81253" />
    <path
       inkscape:connector-curvature="0"
       id="path4058"
       style="font-style:normal;font-variant:normal;font-weight:bold;font-stretch:normal;font-size:100px;line-height:125%;font-family:'Source Sans Pro';-inkscape-font-specification:'Source Sans Pro Bold';letter-spacing:0px;word-spacing:0px;fill:#000000;fill-opacity:1;stroke:none"
       d="m 390.42568,978.39077 9.18751,0 0,18.06242 c -10e-6,2.25 0.31249,3.79181 0.93749,4.62501 0.62499,0.8334 1.60415,1.2501 2.9375,1.25 1.16667,10e-5 2.14581,-0.2708 2.93751,-0.8125 0.79165,-0.5417 1.64579,-1.4166 2.56249,-2.62486 l 0,-20.50007 9.1875,0 0,31.00003 -7.50001,0 -0.68748,-4.3126 -0.1875,0 c -1.33336,1.5835 -2.77087,2.8333 -4.3125,3.75 -1.50003,0.875 -3.31253,1.3126 -5.43751,1.3126 -3.375,0 -5.83334,-1.1044 -7.375,-3.3125 -1.5,-2.2085 -2.25,-5.2709 -2.25,-9.18756 l 0,-19.24997" />
    <path
       inkscape:connector-curvature="0"
       id="path4060"
       style="font-style:normal;font-variant:normal;font-weight:bold;font-stretch:normal;font-size:100px;line-height:125%;font-family:'Source Sans Pro';-inkscape-font-specification:'Source Sans Pro Bold';letter-spacing:0px;word-spacing:0px;fill:#000000;fill-opacity:1;stroke:none"
       d="m 426.26064,965.57827 9.18749,0 0,10.75 -0.24998,4.74999 c 1.2083,-1.08329 2.49998,-1.91664 3.87499,-2.49999 1.41665,-0.62498 2.85414,-0.93747 4.31251,-0.93751 1.87496,4e-5 3.56246,0.37504 5.06249,1.12501 1.49997,0.75004 2.77079,1.81251 3.81251,3.1875 1.0833,1.33336 1.89579,2.97918 2.43749,4.9375 0.58329,1.91669 0.87496,4.06251 0.87499,6.43755 -3e-5,2.66666 -0.37503,5.04153 -1.12501,7.12488 -0.70835,2.0833 -1.68751,3.8542 -2.93747,5.3125 -1.20838,1.4167 -2.6042,2.5 -4.18751,3.2502 -1.54169,0.7499 -3.14586,1.1249 -4.8125,1.1249 -1.37501,0 -2.77086,-0.3334 -4.18751,-1 -1.37501,-0.6666 -2.66667,-1.6668 -3.87499,-3.0001 l -0.25002,0 -0.74999,3.2501 -7.18749,0 0,-43.81253 m 9.18749,35.06243 c 0.83331,0.7501 1.66666,1.2709 2.5,1.5626 0.83332,0.2916 1.64581,0.4375 2.4375,0.4374 1.58331,10e-5 2.93749,-0.7083 4.06251,-2.1249 1.12497,-1.45835 1.68747,-3.79171 1.6875,-7.00004 -3e-5,-5.58331 -1.79169,-8.37496 -5.375,-8.375 -1.83335,4e-5 -3.60419,0.93752 -5.31251,2.8125 l 0,12.68744" />
    <path
       style="font-style:normal;font-variant:normal;font-weight:bold;font-stretch:normal;font-size:100px;line-height:125%;font-family:'Source Sans Pro';-inkscape-font-specification:'Source Sans Pro Bold';letter-spacing:0px;word-spacing:0px;fill:url(#radialGradient4092);fill-opacity:1;stroke:none"
       d="m 233.13847,947.9622 c -4.14215,0 -7.5,3.35787 -7.5,7.5 0,1.33442 0.34609,2.5863 0.95702,3.67188 0.67354,7.35731 -1.72873,17.52938 -7.36327,18.71093 -0.79933,-0.13447 -1.61219,-0.1953 -2.4414,-0.19533 -0.88037,3e-5 -1.74254,0.0828 -2.59767,0.23439 -0.006,-6.3e-4 -0.0129,6.3e-4 -0.0195,0 -6.88451,-0.77621 -8.53512,-6.99492 -8.53512,-9.92187 0,-2.76142 -2.23855,-5 -5,-5 -2.76141,0 -4.99999,2.23858 -4.99999,5 0,2.76142 2.23858,5 4.99999,5 2.89656,0 5.41656,5.58992 4.1211,10.68358 -0.71496,1.00152 -1.32478,2.12658 -1.83593,3.37891 -0.83332,2.00001 -1.25,4.29167 -1.25,6.87495 0,2.58336 0.41668,4.89209 1.25,6.93366 0.83333,2 1.92577,3.6834 3.30077,5.0585 0.15091,0.1464 0.31314,0.2904 0.46875,0.4298 1.87808,4.9643 -1.96241,15.6952 -4.51172,19.3359 -0.002,0 -0.0172,-0.012 -0.0196,0 -0.89724,0.3794 -1.52341,1.2691 -1.52341,2.3047 0,1.3806 1.1193,2.5 2.50001,2.5 1.38069,0 2.5,-1.1194 2.5,-2.5 0,-0.4623 -0.13286,-0.898 -0.35158,-1.2696 -0.58827,-5.1399 6.90737,-14.6453 11.69923,-16.5429 1.08237,-0.014 2.13287,-0.1601 3.16406,-0.3906 7.02095,1.0855 15.83144,15.0803 15.56641,22.2852 -0.0546,0.2961 -0.0782,0.6062 -0.0782,0.9178 0,2.7616 2.23858,5.0001 5,5.0001 2.76142,0 5.00001,-2.2385 5.00001,-5.0001 0,-2.2435 -1.48029,-4.1326 -3.51564,-4.7655 l -0.0196,0 c -6.66719,-4.7468 -14.6381,-18.0965 -12.85156,-24.7852 0.51424,-0.7956 0.95977,-1.6472 1.34766,-2.5781 0.83332,-2.04157 1.24997,-4.3503 1.25001,-6.93366 -4e-5,-2.58328 -0.41669,-4.87494 -1.25001,-6.87495 -0.29167,-0.71457 -0.61344,-1.39833 -0.97656,-2.03125 -2.52957,-8.92872 0.1295,-16.46994 5.54687,-22.3242 3.15041,-0.8888 5.46875,-3.77228 5.46875,-7.20704 0,-4.14213 -3.35785,-7.5 -7.49999,-7.5 z m -16.34765,37.10936 c 1.87498,3e-5 3.29946,0.79952 4.25781,2.38283 0.9583,1.58334 1.42575,3.73698 1.42578,6.44525 -3e-5,2.70835 -0.46748,4.84247 -1.42578,6.42596 -0.95835,1.5832 -2.38283,2.3826 -4.25781,2.3826 -1.91669,0 -3.35807,-0.7994 -4.3164,-2.3826 -0.91668,-1.58349 -1.36721,-3.71761 -1.36719,-6.42596 -2e-5,-2.70827 0.45051,-4.86191 1.36719,-6.44525 0.95833,-1.58331 2.39971,-2.3828 4.3164,-2.38283 z"
       id="path4046"
       inkscape:connector-curvature="0" />
  </g>
</svg>
